<svg width="64" height="68" viewBox="0 0 64 68" fill="none" xmlns="http://www.w3.org/2000/svg">
<path d="M29.02 15.34L23.63 19.54C22.73 20.24 22 21.73 22 22.86V30.27C22 32.59 23.89 34.49 26.21 34.49H37.79C40.11 34.49 42 32.59 42 30.28V23C42 21.79 41.19 20.24 40.2 19.55L34.02 15.22C32.62 14.24 30.37 14.29 29.02 15.34Z" stroke="white" stroke-width="1.5" stroke-linecap="round" stroke-linejoin="round"/>
<path d="M32 30.49V27.49" stroke="white" stroke-width="1.5" stroke-linecap="round" stroke-linejoin="round"/>
<path d="M22.8281 52.5H21.7734V48.6504H17.1328V52.5H16.0781V44.0449H17.1328V47.7012H21.7734V44.0449H22.8281V52.5ZM29.5781 51.7383C29.0586 52.3203 28.3496 52.6113 27.4512 52.6113C26.5527 52.6113 25.8418 52.3203 25.3184 51.7383C24.7988 51.1523 24.5391 50.3535 24.5391 49.3418C24.5391 48.3262 24.7988 47.5273 25.3184 46.9453C25.8379 46.3633 26.5488 46.0723 27.4512 46.0723C28.3535 46.0723 29.0645 46.3633 29.584 46.9453C30.1035 47.5273 30.3633 48.3262 30.3633 49.3418C30.3633 50.3535 30.1016 51.1523 29.5781 51.7383ZM26.0684 51.0879C26.3926 51.498 26.8535 51.7031 27.4512 51.7031C28.0488 51.7031 28.5098 51.498 28.834 51.0879C29.1582 50.6738 29.3203 50.0918 29.3203 49.3418C29.3203 48.5918 29.1582 48.0117 28.834 47.6016C28.5098 47.1875 28.0488 46.9805 27.4512 46.9805C26.8535 46.9805 26.3926 47.1875 26.0684 47.6016C25.7441 48.0117 25.582 48.5918 25.582 49.3418C25.582 50.0918 25.7441 50.6738 26.0684 51.0879ZM31.9453 52.5V46.1836H32.9062V47.1797H33C33.1445 46.8281 33.3691 46.5566 33.6738 46.3652C33.9785 46.1699 34.3418 46.0723 34.7637 46.0723C35.1777 46.0723 35.5332 46.1719 35.8301 46.3711C36.1309 46.5703 36.3574 46.8398 36.5098 47.1797H36.6035C36.7754 46.8398 37.0332 46.5703 37.377 46.3711C37.7207 46.1719 38.1074 46.0723 38.5371 46.0723C39.1816 46.0723 39.6777 46.252 40.0254 46.6113C40.373 46.9668 40.5469 47.4746 40.5469 48.1348V52.5H39.5391V48.3691C39.5391 47.4434 39.0957 46.9805 38.209 46.9805C37.7793 46.9805 37.4277 47.1211 37.1543 47.4023C36.8809 47.6836 36.7441 48.0293 36.7441 48.4395V52.5H35.7363V48.2109C35.7363 47.8359 35.6152 47.5371 35.373 47.3145C35.1348 47.0918 34.8164 46.9805 34.418 46.9805C34.0078 46.9805 33.6602 47.1367 33.375 47.4492C33.0938 47.7617 32.9531 48.1406 32.9531 48.5859V52.5H31.9453ZM44.9062 46.9629C44.4023 46.9629 43.9883 47.1328 43.6641 47.4727C43.3398 47.8125 43.1582 48.2617 43.1191 48.8203H46.5996C46.5879 48.2617 46.4277 47.8125 46.1191 47.4727C45.8105 47.1328 45.4062 46.9629 44.9062 46.9629ZM46.5703 50.8652H47.5781C47.4258 51.4121 47.1152 51.8398 46.6465 52.1484C46.1816 52.457 45.6055 52.6113 44.918 52.6113C44.043 52.6113 43.3496 52.3184 42.8379 51.7324C42.3262 51.1426 42.0703 50.3477 42.0703 49.3477C42.0703 48.3516 42.3281 47.5566 42.8438 46.9629C43.3594 46.3691 44.0508 46.0723 44.918 46.0723C45.7695 46.0723 46.4395 46.3555 46.9277 46.9219C47.416 47.4883 47.6602 48.2637 47.6602 49.248V49.6348H43.1191V49.6816C43.1465 50.3066 43.3223 50.8027 43.6465 51.1699C43.9746 51.5371 44.4062 51.7207 44.9414 51.7207C45.7578 51.7207 46.3008 51.4355 46.5703 50.8652Z" fill="white"/>
</svg>
