<svg width="70" height="68" viewBox="0 0 70 68" fill="none" xmlns="http://www.w3.org/2000/svg">
<path d="M34.5 33.5C39.7467 33.5 44 29.2467 44 24C44 18.7533 39.7467 14.5 34.5 14.5C29.2533 14.5 25 18.7533 25 24C25 29.2467 29.2533 33.5 34.5 33.5Z" stroke="white" stroke-width="1.5" stroke-linecap="round" stroke-linejoin="round"/>
<path d="M45 34.5L43 32.5" stroke="white" stroke-width="1.5" stroke-linecap="round" stroke-linejoin="round"/>
<path d="M15.6738 50.291H16.7402C16.8066 50.7324 17.0352 51.084 17.4258 51.3457C17.8164 51.6074 18.3125 51.7383 18.9141 51.7383C19.4844 51.7383 19.9551 51.6016 20.3262 51.3281C20.7012 51.0508 20.8887 50.7031 20.8887 50.2852C20.8887 49.9258 20.752 49.6289 20.4785 49.3945C20.2051 49.1562 19.7773 48.9629 19.1953 48.8145L18.1113 48.5332C17.3457 48.3418 16.7891 48.0645 16.4414 47.7012C16.0938 47.3379 15.9199 46.8555 15.9199 46.2539C15.9199 45.5352 16.1934 44.9551 16.7402 44.5137C17.291 44.0684 18.0137 43.8457 18.9082 43.8457C19.7246 43.8457 20.4082 44.0645 20.959 44.502C21.5098 44.9395 21.8066 45.5 21.8496 46.1836H20.7891C20.7148 45.75 20.5078 45.4121 20.168 45.1699C19.832 44.9238 19.4004 44.8008 18.873 44.8008C18.3105 44.8008 17.8574 44.9316 17.5137 45.1934C17.1738 45.4512 17.0039 45.793 17.0039 46.2188C17.0039 46.5508 17.1289 46.8203 17.3789 47.0273C17.6328 47.2344 18.0508 47.4121 18.6328 47.5605L19.5176 47.7949C20.3926 48.0137 21.0195 48.3066 21.3984 48.6738C21.7812 49.041 21.9727 49.5352 21.9727 50.1562C21.9727 50.9336 21.6875 51.5527 21.1172 52.0137C20.5469 52.4707 19.7793 52.6992 18.8145 52.6992C17.9199 52.6992 17.1855 52.4805 16.6113 52.043C16.041 51.6055 15.7285 51.0215 15.6738 50.291ZM26.1211 46.9629C25.6172 46.9629 25.2031 47.1328 24.8789 47.4727C24.5547 47.8125 24.373 48.2617 24.334 48.8203H27.8145C27.8027 48.2617 27.6426 47.8125 27.334 47.4727C27.0254 47.1328 26.6211 46.9629 26.1211 46.9629ZM27.7852 50.8652H28.793C28.6406 51.4121 28.3301 51.8398 27.8613 52.1484C27.3965 52.457 26.8203 52.6113 26.1328 52.6113C25.2578 52.6113 24.5645 52.3184 24.0527 51.7324C23.541 51.1426 23.2852 50.3477 23.2852 49.3477C23.2852 48.3516 23.543 47.5566 24.0586 46.9629C24.5742 46.3691 25.2656 46.0723 26.1328 46.0723C26.9844 46.0723 27.6543 46.3555 28.1426 46.9219C28.6309 47.4883 28.875 48.2637 28.875 49.248V49.6348H24.334V49.6816C24.3613 50.3066 24.5371 50.8027 24.8613 51.1699C25.1895 51.5371 25.6211 51.7207 26.1562 51.7207C26.9727 51.7207 27.5156 51.4355 27.7852 50.8652ZM32.4023 51.7266C32.9219 51.7266 33.3516 51.5762 33.6914 51.2754C34.0352 50.9746 34.207 50.5977 34.207 50.1445V49.5645L32.5078 49.6758C32.0312 49.707 31.6816 49.8066 31.459 49.9746C31.2363 50.1426 31.125 50.3867 31.125 50.707C31.125 51.0234 31.2441 51.2734 31.4824 51.457C31.7207 51.6367 32.0273 51.7266 32.4023 51.7266ZM32.2148 52.6113C31.5938 52.6113 31.082 52.4414 30.6797 52.1016C30.2812 51.7578 30.082 51.3008 30.082 50.7305C30.082 50.168 30.2812 49.7266 30.6797 49.4062C31.0781 49.0859 31.6465 48.9043 32.3848 48.8613L34.207 48.75V48.1758C34.207 47.7852 34.0859 47.4863 33.8438 47.2793C33.6016 47.0723 33.2461 46.9688 32.7773 46.9688C32.3984 46.9688 32.084 47.0371 31.834 47.1738C31.584 47.3105 31.4238 47.5039 31.3535 47.7539H30.334C30.4004 47.25 30.6602 46.8438 31.1133 46.5352C31.5703 46.2266 32.1367 46.0723 32.8125 46.0723C33.5781 46.0723 34.1699 46.2578 34.5879 46.6289C35.0059 47 35.2148 47.5156 35.2148 48.1758V52.5H34.2539V51.5684H34.1602C33.957 51.9043 33.6875 52.1621 33.3516 52.3418C33.0156 52.5215 32.6367 52.6113 32.2148 52.6113ZM37.0781 52.5V46.1836H38.0391V47.1211H38.1328C38.2266 46.8125 38.4375 46.5605 38.7656 46.3652C39.0938 46.1699 39.4668 46.0723 39.8848 46.0723C40.0762 46.0723 40.2441 46.082 40.3887 46.1016V47.1094C40.252 47.0703 40.0371 47.0508 39.7441 47.0508C39.2637 47.0508 38.8672 47.1953 38.5547 47.4844C38.2422 47.7734 38.0859 48.1406 38.0859 48.5859V52.5H37.0781ZM46.6992 48.1172H45.6797C45.5938 47.7852 45.4082 47.5137 45.123 47.3027C44.8418 47.0879 44.4844 46.9805 44.0508 46.9805C43.4844 46.9805 43.0332 47.1914 42.6973 47.6133C42.3652 48.0352 42.1992 48.6035 42.1992 49.3184C42.1992 50.0449 42.3672 50.625 42.7031 51.0586C43.0391 51.4883 43.4883 51.7031 44.0508 51.7031C44.4766 51.7031 44.8301 51.6074 45.1113 51.416C45.3965 51.2246 45.5859 50.9512 45.6797 50.5957H46.6992C46.6055 51.1934 46.3262 51.6797 45.8613 52.0547C45.3965 52.4258 44.7949 52.6113 44.0566 52.6113C43.1699 52.6113 42.4648 52.3145 41.9414 51.7207C41.418 51.123 41.1562 50.3223 41.1562 49.3184C41.1562 48.334 41.418 47.5469 41.9414 46.957C42.4648 46.3672 43.168 46.0723 44.0508 46.0723C44.7891 46.0723 45.3906 46.2656 45.8555 46.6523C46.3242 47.0391 46.6055 47.5273 46.6992 48.1172ZM48.2461 52.5V43.6758H49.2539V47.1797H49.3477C49.5078 46.8242 49.752 46.5508 50.0801 46.3594C50.4121 46.168 50.8164 46.0723 51.293 46.0723C51.9648 46.0723 52.4961 46.2793 52.8867 46.6934C53.2773 47.1035 53.4727 47.6758 53.4727 48.4102V52.5H52.4648V48.6562C52.4648 47.5391 51.9785 46.9805 51.0059 46.9805C50.4512 46.9805 50.0195 47.1426 49.7109 47.4668C49.4062 47.7871 49.2539 48.2188 49.2539 48.7617V52.5H48.2461Z" fill="white"/>
</svg>
